<?xml version="1.0" encoding="utf-8"?>
<!-- Generator: Adobe Illustrator 21.0.0, SVG Export Plug-In . SVG Version: 6.00 Build 0)  -->
<svg version="1.1" id="Слой_1" xmlns="http://www.w3.org/2000/svg" xmlns:xlink="http://www.w3.org/1999/xlink" x="0px" y="0px"
	 viewBox="0 0 161 121" style="enable-background:new 0 0 161 121;" xml:space="preserve">
<style type="text/css">
	.st0{fill:#394A63;}
	.st1{fill:#332F2D;}
	.st2{fill:#635D5A;}
	.st3{fill:#FFDEC5;}
	.st4{fill:#506A91;}
	.st5{fill:#FFB769;}
	.st6{fill:#FF8812;}
	.st7{fill:#637EA8;}
	.st8{fill:#753A13;}
	.st9{fill:#728EB7;}
	.st10{fill:#3F3F3F;}
	.st11{fill:#FFEBDE;}
	.st12{fill:#F2D0B8;}
	.st13{fill:#4A6182;}
	.st14{fill:#FFFFFF;}
	.st15{fill:#3A3A3A;}
	.st16{fill:#AF7041;}
	.st17{fill:#DDDDDD;}
</style>
<g>
	<polygon class="st0" points="64.5,88.2 69.1,82.1 42.8,62.5 35.4,72.4 	"/>
	<polygon class="st0" points="60.9,114.1 65.9,114.6 69.1,82 60.9,81.2 	"/>
	<polygon class="st1" points="74.3,119.2 69.6,118.6 64.1,117.5 64.1,118 59.9,117.5 60.4,113.4 65.7,114 74.5,117.7 	"/>
	<polygon class="st0" points="29.5,94.1 36.8,96.3 46.4,65 34.5,61.4 	"/>
	<polygon class="st0" points="3.9,99.4 5.1,104.4 36.9,96.3 34.9,88.3 	"/>
	<polygon class="st1" points="3.7,113.8 2.6,109.1 1.9,103.6 1.3,103.8 0.4,99.7 4.4,98.7 5.6,103.9 5.2,113.4 	"/>
	<polygon class="st2" points="4.5,113.6 3.7,113.8 2.6,109.1 1.9,103.6 1.3,103.8 0.4,99.7 1.2,99.5 	"/>
	<path class="st3" d="M74.1,49.7c0.2,1,1.2,1.6,2.1,1.4l4.4-0.9c1-0.2,1.6-1.2,1.4-2.1l0,0c-0.2-1-1.2-1.6-2.1-1.4l-4.3,0.9
		C74.5,47.8,73.9,48.8,74.1,49.7L74.1,49.7z"/>
	<path class="st4" d="M43.3,36.8c-0.7-1.5,0-3.3,1.5-3.9c1.2-0.5,2.5-0.2,3.4,0.7c0,0,0.4,0.5,0.4,0.6C50.7,37.5,61,51.7,77.8,47
		c0.5,1.7,0.6,1.9,0.7,3.5c-24.1,7.9-35.2-13.6-35.2-13.6l0,0C43.3,36.9,43.3,36.9,43.3,36.8z"/>
	<rect x="61.7" y="31.1" class="st5" width="32.6" height="32.6"/>
	<rect x="65.5" y="34.9" class="st6" width="25.1" height="25.1"/>
	<rect x="68.3" y="37.7" class="st5" width="19.5" height="19.5"/>
	<path class="st3" d="M73.2,53.7c0.1,0.9,0.9,1.6,1.8,1.6l4.2-0.3c0.9-0.1,1.6-0.9,1.6-1.8l0,0c-0.1-0.9-0.9-1.6-1.8-1.6l-4.2,0.3
		C73.8,52,73.1,52.8,73.2,53.7L73.2,53.7z"/>
	<rect x="45.8" y="23.9" transform="matrix(0.2189 -0.9757 0.9757 0.2189 11.9981 67.7301)" class="st3" width="5" height="4.9"/>
	<polygon class="st7" points="33.7,64.3 46,65.1 52.3,29.3 43,27.2 	"/>
	<path class="st3" d="M45.1,13.3c-0.9,3.4-0.8,6.8,1.7,8.1l-0.8,4l4.7,1c3.4,0.8,4.7-1.4,5.5-4.9l1.7,0.1L57.4,17l0.4-1.6
		c0.8-3.4-1.3-6.9-4.7-7.8l0,0c-3.4-0.9-6.9,1.3-7.8,4.7L45.1,13.3z"/>
	<path class="st8" d="M45.8,18.2c2.3,0.7,1.9-3.7,4.2-2.9c2.1,0.7,0.2,2.5,1.3,2.9c1.8,0.6,0.4-6.1,4.2-5.4c3.6,0.7-0.3-1.2-0.1-3.4
		C53.2,11,56.9,7,53.5,6.2l0,0c-3.4-0.8-6.9,1.3-7.8,4.7C45.7,10.9,42.8,17.4,45.8,18.2z"/>
	<path class="st9" d="M43.2,36.8c-0.4-1.6,0.5-3.2,2.1-3.7c1.3-0.3,2.5,0.2,3.2,1.2c0,0,0.3,0.5,0.3,0.7c1.6,3.5,9.9,18.9,27.1,16.6
		c0.3,1.7,0.3,1.9,0.3,3.6c-24.9,4.6-33-18.3-33-18.3l0,0C43.2,36.9,43.2,36.9,43.2,36.8z"/>
	<ellipse transform="matrix(0.2944 -0.9557 0.9557 0.2944 21.9221 64.9419)" class="st10" cx="54.9" cy="17.6" rx="0.6" ry="0.6"/>
	<rect x="55.2" y="14.9" transform="matrix(0.2933 -0.956 0.956 0.2933 23.7649 64.3524)" class="st10" width="0.4" height="2.3"/>
	<polygon class="st2" points="74.4,118.3 74.3,119.2 69.6,118.6 64.1,117.5 64.1,118 59.9,117.5 60,116.7 	"/>
	<path class="st11" d="M48.3,17c-0.2,0.8,0.1,1.6,0.7,1.8c0.7,0.2,1.4-0.3,1.6-1.1c0.2-0.8-0.1-1.6-0.7-1.8
		C49.3,15.7,48.6,16.2,48.3,17z"/>
	<path class="st12" d="M48.8,17.1c-0.2,0.5,0.1,1,0.5,1.1c0.4,0.1,0.8-0.2,1-0.7c0.2-0.5,0-1-0.4-1.1C49.4,16.3,48.9,16.6,48.8,17.1
		z"/>
	<path class="st13" d="M53.6,6.2c-4.1-0.9-8.2,1.6-9.1,5.7l14.9,3.4C60.2,11.2,57.7,7.1,53.6,6.2z"/>
	<polygon class="st13" points="63.6,16.2 58.3,15.1 58.4,14.3 63.7,15.5 	"/>
	<g>
		<rect x="108.3" y="0.5" class="st14" width="49" height="113.2"/>
		<path class="st15" d="M157.7,114.2h-49.9V0.1h49.9V114.2z M108.7,113.3h48V1h-48V113.3z"/>
	</g>
	<rect x="104.6" y="116.6" class="st16" width="56.4" height="4.4"/>
	<rect x="111.8" y="4.2" class="st17" width="41.8" height="42.2"/>
	<rect x="116.7" y="9.1" class="st14" width="32.1" height="32.4"/>
	<rect x="111.9" y="65.5" class="st17" width="41.8" height="42.2"/>
	<rect x="116.8" y="70.4" class="st14" width="32.1" height="32.4"/>
	<circle class="st15" cx="114" cy="55.4" r="2"/>
</g>
</svg>
